<svg id="visual" viewBox="0 0 675 900" width="675" height="900" xmlns="http://www.w3.org/2000/svg" xmlns:xlink="http://www.w3.org/1999/xlink" version="1.1"><rect x="0" y="0" width="675" height="900" fill="#fffbd3"></rect><defs><linearGradient id="grad1_0" x1="0%" y1="100%" x2="100%" y2="0%"><stop offset="30%" stop-color="#fffbd3" stop-opacity="1"></stop><stop offset="70%" stop-color="#fffbd3" stop-opacity="1"></stop></linearGradient></defs><defs><linearGradient id="grad2_0" x1="0%" y1="100%" x2="100%" y2="0%"><stop offset="30%" stop-color="#fffbd3" stop-opacity="1"></stop><stop offset="70%" stop-color="#fffbd3" stop-opacity="1"></stop></linearGradient></defs><g transform="translate(675, 900)"><path d="M-309.4 0C-284.4 -35.4 -259.4 -70.8 -237.4 -98.3C-215.5 -125.9 -196.5 -145.6 -179.6 -179.6C-162.7 -213.6 -148 -261.8 -118.4 -285.8C-88.8 -309.8 -44.4 -309.6 0 -309.4L0 0Z" fill="#48284a"></path></g><g transform="translate(0, 0)"><path d="M309.4 0C273.7 26.4 238 52.8 229.1 94.9C220.2 137 238.1 194.9 218.8 218.8C199.4 242.7 142.9 232.6 100.3 242.1C57.6 251.5 28.8 280.4 0 309.4L0 0Z" fill="#48284a"></path></g></svg>