<svg id="visual" viewBox="0 0 675 900" width="675" height="900" xmlns="http://www.w3.org/2000/svg" xmlns:xlink="http://www.w3.org/1999/xlink" version="1.1"><rect x="0" y="0" width="675" height="900" fill="#fffbd3"></rect><defs><linearGradient id="grad1_0" x1="0%" y1="0%" x2="100%" y2="100%"><stop offset="30%" stop-color="#fffbd3" stop-opacity="1"></stop><stop offset="70%" stop-color="#fffbd3" stop-opacity="1"></stop></linearGradient></defs><defs><linearGradient id="grad2_0" x1="0%" y1="0%" x2="100%" y2="100%"><stop offset="30%" stop-color="#fffbd3" stop-opacity="1"></stop><stop offset="70%" stop-color="#fffbd3" stop-opacity="1"></stop></linearGradient></defs><g transform="translate(675, 0)"><path d="M0 225C-41.1 220.1 -82.2 215.2 -112.5 194.9C-142.8 174.5 -162.3 138.6 -179.3 103.5C-196.2 68.4 -210.6 34.2 -225 0L0 0Z" fill="#48284a"></path></g><g transform="translate(0, 900)"><path d="M0 -225C34.2 -210.6 68.4 -196.2 103.5 -179.3C138.6 -162.3 174.5 -142.8 194.9 -112.5C215.2 -82.2 220.1 -41.1 225 0L0 0Z" fill="#48284a"></path></g></svg>