<svg id="visual" viewBox="0 0 675 900" width="675" height="900" xmlns="http://www.w3.org/2000/svg" xmlns:xlink="http://www.w3.org/1999/xlink" version="1.1"><rect x="0" y="0" width="675" height="900" fill="#fffbd3"></rect><defs><linearGradient id="grad1_0" x1="0%" y1="100%" x2="100%" y2="0%"><stop offset="30%" stop-color="#fffbd3" stop-opacity="1"></stop><stop offset="70%" stop-color="#fffbd3" stop-opacity="1"></stop></linearGradient></defs><defs><linearGradient id="grad2_0" x1="0%" y1="100%" x2="100%" y2="0%"><stop offset="30%" stop-color="#fffbd3" stop-opacity="1"></stop><stop offset="70%" stop-color="#fffbd3" stop-opacity="1"></stop></linearGradient></defs><g transform="translate(675, 900)"><path d="M-393.7 0C-382.8 -48.1 -371.9 -96.3 -355.7 -147.3C-339.5 -198.4 -318.1 -252.4 -278.4 -278.4C-238.7 -304.4 -180.7 -302.3 -131.3 -316.9C-81.8 -331.4 -40.9 -362.6 0 -393.7L0 0Z" fill="#48284a"></path></g><g transform="translate(0, 0)"><path d="M393.8 0C391.5 54 389.3 108 363.8 150.7C338.3 193.4 289.4 224.9 246.1 246.1C202.7 267.3 164.9 278.3 124.8 301.2C84.7 324.1 42.3 358.9 0 393.8L0 0Z" fill="#48284a"></path></g></svg>