<svg id="visual" viewBox="0 0 1200 540" width="1200" height="540" xmlns="http://www.w3.org/2000/svg" xmlns:xlink="http://www.w3.org/1999/xlink" version="1.1"><rect x="0" y="0" width="1200" height="540" fill="#fffbd3"></rect><defs><linearGradient id="grad1_0" x1="55%" y1="0%" x2="100%" y2="100%"><stop offset="5.555555555555554%" stop-color="#fffbd3" stop-opacity="1"></stop><stop offset="94.44444444444446%" stop-color="#fffbd3" stop-opacity="1"></stop></linearGradient></defs><defs><linearGradient id="grad2_0" x1="0%" y1="0%" x2="45%" y2="100%"><stop offset="5.555555555555554%" stop-color="#fffbd3" stop-opacity="1"></stop><stop offset="94.44444444444446%" stop-color="#fffbd3" stop-opacity="1"></stop></linearGradient></defs><g transform="translate(1200, 0)"><path d="M0 324C-47.1 323.8 -94.1 323.5 -124 299.3C-153.8 275.1 -166.5 227 -196.6 196.6C-226.7 166.1 -274.3 153.4 -298.4 123.6C-322.6 93.8 -323.3 46.9 -324 0L0 0Z" fill="#48284a"></path></g><g transform="translate(0, 540)"><path d="M0 -324C36 -304.2 72.1 -284.3 112.5 -271.6C152.9 -258.9 197.7 -253.3 229.1 -229.1C260.5 -204.9 278.4 -162.2 291.9 -120.9C305.5 -79.7 314.8 -39.8 324 0L0 0Z" fill="#48284a"></path></g></svg>